<svg height="464pt" viewBox="-20 0 464 464" width="464pt" xmlns="http://www.w3.org/2000/svg"><path d="m384 200 40-64-40-64h-384v128zm0 0" fill="#ffeb99"/><path d="m40 248-40 64 40 64h384v-128zm0 0" fill="#ff9478"/><g fill="#787680"><path d="m192 32h32v40h-32zm0 0"/><path d="m192 200h32v48h-32zm0 0"/><path d="m192 376h32v88h-32zm0 0"/><path d="m240 32v-32h-64v32zm0 0"/></g><path d="m192 32h32v8h-32zm0 0" fill="#57565c"/><path d="m192 200h32v8h-32zm0 0" fill="#57565c"/><path d="m192 376h32v8h-32zm0 0" fill="#57565c"/></svg>